ffmpeg started on 2025-05-05 at 11:20:02
Report written to "D:\Convert\FFMetrics\reports\psnr_report-6.txt"
Log level: 32
Command line:
ffmpeg -hide_banner -nostdin -i "G:\\\xc0\xed\xe8\xec\xe5\\\xce\xed\xe3\xee\xe8\xed\xe3\xe8\\!_35_\xcb\xe5\xf2\xee_2024\\JamClub-1\\\xdd\xf2\xee\xf2 \xec\xe8\xf0 \xf1\xeb\xe8\xf8\xea\xee\xec \xed\xe5\xf1\xee\xe2\xe5\xf0\xf8\xe5\xed\xe5\xed\\JamClub_Kono_Sekai_wa_Fukanzen_Sugiru_13_1080p_HEVC.mkv" -i "G:\\\xc0\xed\xe8\xec\xe5\\\xce\xed\xe3\xee\xe8\xed\xe3\xe8\\!_35_\xcb\xe5\xf2\xee_2024\\JamClub-1\\\xdd\xf2\xee\xf2 \xec\xe8\xf0 \xf1\xeb\xe8\xf8\xea\xee\xec \xed\xe5\xf1\xee\xe2\xe5\xf0\xf8\xe5\xed\xe5\xed\\JamClub_Kono_Sekai_wa_Fukanzen_Sugiru_13_1080p.mp4" -lavfi "[0:v]settb=AVTB,setpts=PTS-STARTPTS,format=pix_fmts=yuv420p10,fps=24000/1001,scale=1920:1080:flags=bicubic[main];[1:v]settb=AVTB,setpts=PTS-STARTPTS,format=pix_fmts=yuv420p,fps=24000/1001,scale=1920:1080:flags=bicubic[ref];[main][ref]psnr=eof_action=endall:stats_file='D\\:/Convert/FFMetrics/logs/psnr_logfile-6.txt'" -f null -
Input #0, matroska,webm, from 'G:\Аниме\Онгоинги\!_35_Лето_2024\JamClub-1\Этот мир слишком несовершенен\JamClub_Kono_Sekai_wa_Fukanzen_Sugiru_13_1080p_HEVC.mkv':
  Metadata:
    COMPATIBLE_BRANDS: isomiso2avc1mp41
    MAJOR_BRAND     : isom
    MINOR_VERSION   : 512
    ENCODER         : Lavf61.7.100
  Duration: 00:24:27.35, start: -0.001000, bitrate: 1546 kb/s
  Stream #0:0: Video: hevc (Main 10), yuv420p10le(tv, bt709, progressive), 1920x1080 [SAR 1:1 DAR 16:9], 23.98 fps, 23.98 tbr, 1k tbn (default)
      Metadata:
        HANDLER_NAME    : VideoHandler
        VENDOR_ID       : [0][0][0][0]
        ENCODER         : Lavc61.19.100 libx265
        BPS             : 1347507
        DURATION        : 00:24:27.215708333
        NUMBER_OF_FRAMES: 35178
        NUMBER_OF_BYTES : 247135363
        _STATISTICS_WRITING_APP: mkvpropedit v66.0.0 ('Josie') 64-bit
        _STATISTICS_WRITING_DATE_UTC: 2025-05-04 17:58:10
        _STATISTICS_TAGS: BPS DURATION NUMBER_OF_FRAMES NUMBER_OF_BYTES
  Stream #0:1(eng): Audio: aac (LC), 48000 Hz, stereo, fltp (default)
      Metadata:
        HANDLER_NAME    : SoundHandler
        VENDOR_ID       : [0][0][0][0]
        ENCODER         : Lavc61.19.100 aac
        BPS             : 194742
        DURATION        : 00:24:27.309000000
        NUMBER_OF_FRAMES: 68781
        NUMBER_OF_BYTES : 35718383
        _STATISTICS_WRITING_APP: mkvpropedit v66.0.0 ('Josie') 64-bit
        _STATISTICS_WRITING_DATE_UTC: 2025-05-04 17:58:10
        _STATISTICS_TAGS: BPS DURATION NUMBER_OF_FRAMES NUMBER_OF_BYTES
Input #1, mov,mp4,m4a,3gp,3g2,mj2, from 'G:\Аниме\Онгоинги\!_35_Лето_2024\JamClub-1\Этот мир слишком несовершенен\JamClub_Kono_Sekai_wa_Fukanzen_Sugiru_13_1080p.mp4':
  Metadata:
    major_brand     : isom
    minor_version   : 512
    compatible_brands: isomiso2avc1mp41
    encoder         : Lavf60.16.100
  Duration: 00:24:27.33, start: 0.000000, bitrate: 3914 kb/s
  Stream #1:0[0x1](und): Video: h264 (High) (avc1 / 0x31637661), yuv420p(progressive), 1920x1080 [SAR 1:1 DAR 16:9], 3716 kb/s, 23.98 fps, 23.98 tbr, 90k tbn (default)
      Metadata:
        handler_name    : VideoHandler
        vendor_id       : [0][0][0][0]
  Stream #1:1[0x2](eng): Audio: aac (LC) (mp4a / 0x6134706D), 48000 Hz, stereo, fltp, 191 kb/s (default)
      Metadata:
        handler_name    : SoundHandler
        vendor_id       : [0][0][0][0]
Stream mapping:
  Stream #0:0 (hevc) -> settb:default
  Stream #1:0 (h264) -> settb:default
  psnr:default -> Stream #0:0 (wrapped_avframe)
  Stream #0:1 -> #0:1 (aac (native) -> pcm_s16le (native))
Output #0, null, to 'pipe:':
  Metadata:
    COMPATIBLE_BRANDS: isomiso2avc1mp41
    MAJOR_BRAND     : isom
    MINOR_VERSION   : 512
    encoder         : Lavf61.7.100
  Stream #0:0: Video: wrapped_avframe, yuv420p10le(tv, bt709, progressive), 1920x1080 [SAR 1:1 DAR 16:9], q=2-31, 200 kb/s, 23.98 fps, 23.98 tbn
      Metadata:
        encoder         : Lavc61.19.100 wrapped_avframe
  Stream #0:1(eng): Audio: pcm_s16le, 48000 Hz, stereo, s16, 1536 kb/s (default)
      Metadata:
        HANDLER_NAME    : SoundHandler
        VENDOR_ID       : [0][0][0][0]
        _STATISTICS_TAGS: BPS DURATION NUMBER_OF_FRAMES NUMBER_OF_BYTES
        BPS             : 194742
        DURATION        : 00:24:27.309000000
        NUMBER_OF_FRAMES: 68781
        NUMBER_OF_BYTES : 35718383
        _STATISTICS_WRITING_APP: mkvpropedit v66.0.0 ('Josie') 64-bit
        _STATISTICS_WRITING_DATE_UTC: 2025-05-04 17:58:10
        encoder         : Lavc61.19.100 pcm_s16le
frame=  110 fps=0.0 q=-0.0 size=N/A time=00:00:04.58 bitrate=N/A speed=8.87x    frame=  269 fps=258 q=-0.0 size=N/A time=00:00:11.21 bitrate=N/A speed=10.8x    frame=  449 fps=290 q=-0.0 size=N/A time=00:00:18.76 bitrate=N/A speed=12.1x    frame=  635 fps=307 q=-0.0 size=N/A time=00:00:26.48 bitrate=N/A speed=12.8x    frame=  857 fps=332 q=-0.0 size=N/A time=00:00:35.74 bitrate=N/A speed=13.9x    frame= 1090 fps=351 q=-0.0 size=N/A time=00:00:45.46 bitrate=N/A speed=14.6x    frame= 1329 fps=368 q=-0.0 size=N/A time=00:00:55.43 bitrate=N/A speed=15.3x    frame= 1578 fps=382 q=-0.0 size=N/A time=00:01:05.81 bitrate=N/A speed=15.9x    frame= 1831 fps=395 q=-0.0 size=N/A time=00:01:16.36 bitrate=N/A speed=16.5x    frame= 2076 fps=402 q=-0.0 size=N/A time=00:01:26.58 bitrate=N/A speed=16.8x    frame= 2256 fps=398 q=-0.0 size=N/A time=00:01:34.09 bitrate=N/A speed=16.6x    frame= 2527 fps=408 q=-0.0 size=N/A time=00:01:45.39 bitrate=N/A speed=  17x    frame= 2778 fps=414 q=-0.0 size=N/A time=00:01:55.86 bitrate=N/A speed=17.3x    frame= 2994 fps=415 q=-0.0 size=N/A time=00:02:04.87 bitrate=N/A speed=17.3x    frame= 3124 fps=404 q=-0.0 size=N/A time=00:02:10.29 bitrate=N/A speed=16.8x    frame= 3267 fps=396 q=-0.0 size=N/A time=00:02:16.26 bitrate=N/A speed=16.5x    frame= 3406 fps=388 q=-0.0 size=N/A time=00:02:22.05 bitrate=N/A speed=16.2x    frame= 3623 fps=390 q=-0.0 size=N/A time=00:02:31.10 bitrate=N/A speed=16.3x    frame= 3856 fps=394 q=-0.0 size=N/A time=00:02:40.82 bitrate=N/A speed=16.4x    frame= 4047 fps=392 q=-0.0 size=N/A time=00:02:48.79 bitrate=N/A speed=16.4x    frame= 4241 fps=391 q=-0.0 size=N/A time=00:02:56.88 bitrate=N/A speed=16.3x    frame= 4428 fps=390 q=-0.0 size=N/A time=00:03:04.68 bitrate=N/A speed=16.3x    frame= 4623 fps=390 q=-0.0 size=N/A time=00:03:12.81 bitrate=N/A speed=16.3x    frame= 4802 fps=388 q=-0.0 size=N/A time=00:03:20.28 bitrate=N/A speed=16.2x    frame= 4979 fps=386 q=-0.0 size=N/A time=00:03:27.66 bitrate=N/A speed=16.1x    frame= 5197 fps=388 q=-0.0 size=N/A time=00:03:36.75 bitrate=N/A speed=16.2x    frame= 5410 fps=388 q=-0.0 size=N/A time=00:03:45.64 bitrate=N/A speed=16.2x    frame= 5674 fps=393 q=-0.0 size=N/A time=00:03:56.65 bitrate=N/A speed=16.4x    frame= 5914 fps=395 q=-0.0 size=N/A time=00:04:06.66 bitrate=N/A speed=16.5x    frame= 6160 fps=398 q=-0.0 size=N/A time=00:04:16.92 bitrate=N/A speed=16.6x    frame= 6395 fps=400 q=-0.0 size=N/A time=00:04:26.72 bitrate=N/A speed=16.7x    frame= 6667 fps=404 q=-0.0 size=N/A time=00:04:38.06 bitrate=N/A speed=16.8x    frame= 6928 fps=407 q=-0.0 size=N/A time=00:04:48.95 bitrate=N/A speed=  17x    frame= 7176 fps=409 q=-0.0 size=N/A time=00:04:59.29 bitrate=N/A speed=17.1x    frame= 7417 fps=411 q=-0.0 size=N/A time=00:05:09.35 bitrate=N/A speed=17.1x    frame= 7656 fps=412 q=-0.0 size=N/A time=00:05:19.31 bitrate=N/A speed=17.2x    frame= 7902 fps=414 q=-0.0 size=N/A time=00:05:29.57 bitrate=N/A speed=17.3x    frame= 8143 fps=415 q=-0.0 size=N/A time=00:05:39.63 bitrate=N/A speed=17.3x    frame= 8410 fps=418 q=-0.0 size=N/A time=00:05:50.76 bitrate=N/A speed=17.4x    frame= 8639 fps=419 q=-0.0 size=N/A time=00:06:00.31 bitrate=N/A speed=17.5x    frame= 8894 fps=421 q=-0.0 size=N/A time=00:06:10.95 bitrate=N/A speed=17.5x    frame= 9130 fps=422 q=-0.0 size=N/A time=00:06:20.79 bitrate=N/A speed=17.6x    frame= 9373 fps=423 q=-0.0 size=N/A time=00:06:30.93 bitrate=N/A speed=17.6x    frame= 9618 fps=424 q=-0.0 size=N/A time=00:06:41.15 bitrate=N/A speed=17.7x    frame= 9860 fps=425 q=-0.0 size=N/A time=00:06:51.24 bitrate=N/A speed=17.7x    frame=10050 fps=424 q=-0.0 size=N/A time=00:06:59.16 bitrate=N/A speed=17.7x    frame=10272 fps=424 q=-0.0 size=N/A time=00:07:08.42 bitrate=N/A speed=17.7x    frame=10459 fps=423 q=-0.0 size=N/A time=00:07:16.22 bitrate=N/A speed=17.6x    frame=10673 fps=422 q=-0.0 size=N/A time=00:07:25.15 bitrate=N/A speed=17.6x    frame=10866 fps=421 q=-0.0 size=N/A time=00:07:33.20 bitrate=N/A speed=17.6x    frame=11042 fps=420 q=-0.0 size=N/A time=00:07:40.54 bitrate=N/A speed=17.5x    frame=11286 fps=421 q=-0.0 size=N/A time=00:07:50.72 bitrate=N/A speed=17.6x    frame=11527 fps=422 q=-0.0 size=N/A time=00:08:00.77 bitrate=N/A speed=17.6x    frame=11767 fps=423 q=-0.0 size=N/A time=00:08:10.78 bitrate=N/A speed=17.6x    frame=11979 fps=422 q=-0.0 size=N/A time=00:08:19.62 bitrate=N/A speed=17.6x    frame=12227 fps=423 q=-0.0 size=N/A time=00:08:29.96 bitrate=N/A speed=17.7x    frame=12500 fps=425 q=-0.0 size=N/A time=00:08:41.35 bitrate=N/A speed=17.7x    frame=12711 fps=425 q=-0.0 size=N/A time=00:08:50.15 bitrate=N/A speed=17.7x    frame=12944 fps=425 q=-0.0 size=N/A time=00:08:59.87 bitrate=N/A speed=17.7x    frame=13180 fps=426 q=-0.0 size=N/A time=00:09:09.71 bitrate=N/A speed=17.8x    frame=13440 fps=427 q=-0.0 size=N/A time=00:09:20.56 bitrate=N/A speed=17.8x    frame=13665 fps=427 q=-0.0 size=N/A time=00:09:29.94 bitrate=N/A speed=17.8x    frame=13887 fps=427 q=-0.0 size=N/A time=00:09:39.20 bitrate=N/A speed=17.8x    frame=14111 fps=427 q=-0.0 size=N/A time=00:09:48.54 bitrate=N/A speed=17.8x    frame=14236 fps=425 q=-0.0 size=N/A time=00:09:53.75 bitrate=N/A speed=17.7x    frame=14494 fps=426 q=-0.0 size=N/A time=00:10:04.52 bitrate=N/A speed=17.8x    frame=14711 fps=426 q=-0.0 size=N/A time=00:10:13.57 bitrate=N/A speed=17.8x    frame=14914 fps=425 q=-0.0 size=N/A time=00:10:22.03 bitrate=N/A speed=17.7x    frame=15140 fps=425 q=-0.0 size=N/A time=00:10:31.46 bitrate=N/A speed=17.7x    frame=15381 fps=426 q=-0.0 size=N/A time=00:10:41.51 bitrate=N/A speed=17.8x    frame=15596 fps=426 q=-0.0 size=N/A time=00:10:50.48 bitrate=N/A speed=17.8x    frame=15787 fps=425 q=-0.0 size=N/A time=00:10:58.44 bitrate=N/A speed=17.7x    frame=16023 fps=425 q=-0.0 size=N/A time=00:11:08.29 bitrate=N/A speed=17.7x    frame=16259 fps=426 q=-0.0 size=N/A time=00:11:18.13 bitrate=N/A speed=17.8x    frame=16484 fps=426 q=-0.0 size=N/A time=00:11:27.52 bitrate=N/A speed=17.8x    frame=16751 fps=427 q=-0.0 size=N/A time=00:11:38.65 bitrate=N/A speed=17.8x    frame=16996 fps=428 q=-0.0 size=N/A time=00:11:48.87 bitrate=N/A speed=17.8x    frame=17235 fps=428 q=-0.0 size=N/A time=00:11:58.84 bitrate=N/A speed=17.9x    frame=17481 fps=429 q=-0.0 size=N/A time=00:12:09.10 bitrate=N/A speed=17.9x    frame=17745 fps=430 q=-0.0 size=N/A time=00:12:20.11 bitrate=N/A speed=17.9x    frame=17991 fps=430 q=-0.0 size=N/A time=00:12:30.37 bitrate=N/A speed=  18x    frame=18233 fps=431 q=-0.0 size=N/A time=00:12:40.46 bitrate=N/A speed=  18x    frame=18497 fps=432 q=-0.0 size=N/A time=00:12:51.47 bitrate=N/A speed=  18x    frame=18765 fps=433 q=-0.0 size=N/A time=00:13:02.65 bitrate=N/A speed=18.1x    frame=19047 fps=434 q=-0.0 size=N/A time=00:13:14.41 bitrate=N/A speed=18.1x    frame=19298 fps=435 q=-0.0 size=N/A time=00:13:24.88 bitrate=N/A speed=18.1x    frame=19560 fps=436 q=-0.0 size=N/A time=00:13:35.81 bitrate=N/A speed=18.2x    frame=19804 fps=436 q=-0.0 size=N/A time=00:13:45.99 bitrate=N/A speed=18.2x    frame=20063 fps=437 q=-0.0 size=N/A time=00:13:56.79 bitrate=N/A speed=18.2x    frame=20291 fps=437 q=-0.0 size=N/A time=00:14:06.30 bitrate=N/A speed=18.2x    frame=20552 fps=438 q=-0.0 size=N/A time=00:14:17.18 bitrate=N/A speed=18.3x    frame=20825 fps=439 q=-0.0 size=N/A time=00:14:28.57 bitrate=N/A speed=18.3x    frame=21060 fps=439 q=-0.0 size=N/A time=00:14:38.37 bitrate=N/A speed=18.3x    frame=21338 fps=440 q=-0.0 size=N/A time=00:14:49.97 bitrate=N/A speed=18.4x    frame=21558 fps=440 q=-0.0 size=N/A time=00:14:59.14 bitrate=N/A speed=18.3x    frame=21800 fps=440 q=-0.0 size=N/A time=00:15:09.24 bitrate=N/A speed=18.4x    frame=22060 fps=441 q=-0.0 size=N/A time=00:15:20.08 bitrate=N/A speed=18.4x    frame=22262 fps=440 q=-0.0 size=N/A time=00:15:28.51 bitrate=N/A speed=18.4x    frame=22453 fps=440 q=-0.0 size=N/A time=00:15:36.47 bitrate=N/A speed=18.3x    frame=22689 fps=440 q=-0.0 size=N/A time=00:15:46.32 bitrate=N/A speed=18.3x    frame=22950 fps=441 q=-0.0 size=N/A time=00:15:57.20 bitrate=N/A speed=18.4x    frame=23208 fps=441 q=-0.0 size=N/A time=00:16:07.96 bitrate=N/A speed=18.4x    frame=23418 fps=441 q=-0.0 size=N/A time=00:16:16.72 bitrate=N/A speed=18.4x    frame=23666 fps=441 q=-0.0 size=N/A time=00:16:27.06 bitrate=N/A speed=18.4x    frame=23875 fps=441 q=-0.0 size=N/A time=00:16:35.78 bitrate=N/A speed=18.4x    frame=24056 fps=440 q=-0.0 size=N/A time=00:16:43.33 bitrate=N/A speed=18.4x    frame=24272 fps=440 q=-0.0 size=N/A time=00:16:52.34 bitrate=N/A speed=18.3x    frame=24484 fps=440 q=-0.0 size=N/A time=00:17:01.18 bitrate=N/A speed=18.3x    frame=24690 fps=439 q=-0.0 size=N/A time=00:17:09.77 bitrate=N/A speed=18.3x    frame=24875 fps=438 q=-0.0 size=N/A time=00:17:17.49 bitrate=N/A speed=18.3x    frame=25104 fps=438 q=-0.0 size=N/A time=00:17:27.08 bitrate=N/A speed=18.3x    frame=25364 fps=439 q=-0.0 size=N/A time=00:17:37.89 bitrate=N/A speed=18.3x    frame=25617 fps=440 q=-0.0 size=N/A time=00:17:48.44 bitrate=N/A speed=18.3x    frame=25884 fps=440 q=-0.0 size=N/A time=00:17:59.57 bitrate=N/A speed=18.4x    frame=26132 fps=441 q=-0.0 size=N/A time=00:18:09.92 bitrate=N/A speed=18.4x    frame=26337 fps=440 q=-0.0 size=N/A time=00:18:18.47 bitrate=N/A speed=18.4x    frame=26485 fps=439 q=-0.0 size=N/A time=00:18:24.64 bitrate=N/A speed=18.3x    frame=26644 fps=438 q=-0.0 size=N/A time=00:18:31.27 bitrate=N/A speed=18.3x    frame=26869 fps=438 q=-0.0 size=N/A time=00:18:40.66 bitrate=N/A speed=18.3x    frame=27071 fps=437 q=-0.0 size=N/A time=00:18:49.08 bitrate=N/A speed=18.2x    frame=27285 fps=437 q=-0.0 size=N/A time=00:18:58.01 bitrate=N/A speed=18.2x    frame=27468 fps=436 q=-0.0 size=N/A time=00:19:05.64 bitrate=N/A speed=18.2x    frame=27697 fps=437 q=-0.0 size=N/A time=00:19:15.19 bitrate=N/A speed=18.2x    frame=27932 fps=437 q=-0.0 size=N/A time=00:19:24.99 bitrate=N/A speed=18.2x    frame=28117 fps=436 q=-0.0 size=N/A time=00:19:32.71 bitrate=N/A speed=18.2x    frame=28335 fps=436 q=-0.0 size=N/A time=00:19:41.80 bitrate=N/A speed=18.2x    frame=28542 fps=436 q=-0.0 size=N/A time=00:19:50.43 bitrate=N/A speed=18.2x    frame=28753 fps=436 q=-0.0 size=N/A time=00:19:59.23 bitrate=N/A speed=18.2x    frame=28996 fps=436 q=-0.0 size=N/A time=00:20:09.37 bitrate=N/A speed=18.2x    frame=29251 fps=436 q=-0.0 size=N/A time=00:20:20.01 bitrate=N/A speed=18.2x    frame=29537 fps=437 q=-0.0 size=N/A time=00:20:31.93 bitrate=N/A speed=18.2x    frame=29754 fps=437 q=-0.0 size=N/A time=00:20:40.98 bitrate=N/A speed=18.2x    frame=29981 fps=437 q=-0.0 size=N/A time=00:20:50.45 bitrate=N/A speed=18.2x    frame=30224 fps=437 q=-0.0 size=N/A time=00:21:00.59 bitrate=N/A speed=18.2x    frame=30415 fps=437 q=-0.0 size=N/A time=00:21:08.55 bitrate=N/A speed=18.2x    frame=30616 fps=436 q=-0.0 size=N/A time=00:21:16.94 bitrate=N/A speed=18.2x    frame=30852 fps=437 q=-0.0 size=N/A time=00:21:26.78 bitrate=N/A speed=18.2x    frame=31072 fps=437 q=-0.0 size=N/A time=00:21:35.96 bitrate=N/A speed=18.2x    frame=31298 fps=437 q=-0.0 size=N/A time=00:21:45.38 bitrate=N/A speed=18.2x    frame=31520 fps=437 q=-0.0 size=N/A time=00:21:54.64 bitrate=N/A speed=18.2x    frame=31710 fps=436 q=-0.0 size=N/A time=00:22:02.57 bitrate=N/A speed=18.2x    frame=31907 fps=436 q=-0.0 size=N/A time=00:22:10.78 bitrate=N/A speed=18.2x    frame=32108 fps=435 q=-0.0 size=N/A time=00:22:19.17 bitrate=N/A speed=18.2x    frame=32316 fps=435 q=-0.0 size=N/A time=00:22:27.84 bitrate=N/A speed=18.1x    frame=32483 fps=434 q=-0.0 size=N/A time=00:22:34.81 bitrate=N/A speed=18.1x    frame=32659 fps=434 q=-0.0 size=N/A time=00:22:42.15 bitrate=N/A speed=18.1x    frame=32860 fps=433 q=-0.0 size=N/A time=00:22:50.53 bitrate=N/A speed=18.1x    frame=33054 fps=433 q=-0.0 size=N/A time=00:22:58.62 bitrate=N/A speed=18.1x    frame=33268 fps=433 q=-0.0 size=N/A time=00:23:07.55 bitrate=N/A speed=18.1x    frame=33490 fps=433 q=-0.0 size=N/A time=00:23:16.81 bitrate=N/A speed=18.1x    frame=33702 fps=433 q=-0.0 size=N/A time=00:23:25.65 bitrate=N/A speed=  18x    frame=33939 fps=433 q=-0.0 size=N/A time=00:23:35.53 bitrate=N/A speed=18.1x    frame=34198 fps=433 q=-0.0 size=N/A time=00:23:46.34 bitrate=N/A speed=18.1x    frame=34466 fps=434 q=-0.0 size=N/A time=00:23:57.51 bitrate=N/A speed=18.1x    frame=34692 fps=434 q=-0.0 size=N/A time=00:24:06.94 bitrate=N/A speed=18.1x    frame=34908 fps=434 q=-0.0 size=N/A time=00:24:15.95 bitrate=N/A speed=18.1x    frame=35096 fps=433 q=-0.0 size=N/A time=00:24:23.79 bitrate=N/A speed=18.1x    [Parsed_psnr_10 @ 000001eef83b2d80] PSNR y:47.730751 u:49.960919 v:50.200598 average:48.381856 min:36.530191 max:inf
[out#0/null @ 000001eef7c76e00] video:15116KiB audio:275124KiB subtitle:0KiB other streams:0KiB global headers:0KiB muxing overhead: unknown
frame=35178 fps=434 q=-0.0 Lsize=N/A time=00:24:27.21 bitrate=N/A speed=18.1x    
